<svg xmlns="http://www.w3.org/2000/svg" xmlns:xlink="http://www.w3.org/1999/xlink" width="500" zoomAndPan="magnify" viewBox="0 0 375 374.999991" height="500" preserveAspectRatio="xMidYMid meet" version="1.0"><defs><clipPath id="468a5508e3"><path d="M 0 6.796875 L 372 6.796875 L 372 365 L 0 365 Z M 0 6.796875 " clip-rule="nonzero"/></clipPath></defs><g clip-path="url(#468a5508e3)"><path fill="#b80000" d="M 365.042969 269.511719 L 288.507812 269.511719 L 288.507812 264.636719 C 288.476562 264.1875 288.402344 263.742188 288.285156 263.304688 C 288.167969 262.871094 288.011719 262.449219 287.816406 262.042969 C 287.621094 261.636719 287.386719 261.25 287.117188 260.886719 C 286.847656 260.527344 286.546875 260.191406 286.214844 259.886719 C 285.882812 259.582031 285.523438 259.308594 285.140625 259.070312 C 284.757812 258.832031 284.355469 258.632812 283.933594 258.472656 C 283.511719 258.3125 283.078125 258.191406 282.632812 258.109375 C 282.1875 258.03125 281.742188 257.992188 281.289062 258 C 280.257812 257.996094 279.234375 257.894531 278.222656 257.695312 C 277.210938 257.492188 276.230469 257.191406 275.277344 256.796875 C 274.324219 256.402344 273.417969 255.917969 272.5625 255.34375 C 271.703125 254.769531 270.910156 254.121094 270.179688 253.390625 C 269.449219 252.660156 268.800781 251.867188 268.226562 251.007812 C 267.652344 250.152344 267.167969 249.246094 266.773438 248.292969 C 266.378906 247.339844 266.078125 246.359375 265.875 245.347656 C 265.675781 244.335938 265.570312 243.3125 265.570312 242.28125 L 265.570312 231.460938 C 266.300781 230.53125 267.140625 229.71875 268.09375 229.019531 C 269.042969 228.320312 270.070312 227.761719 271.175781 227.34375 C 272.28125 226.925781 273.421875 226.664062 274.597656 226.554688 C 275.777344 226.449219 276.945312 226.503906 278.105469 226.71875 C 326.101562 241.351562 375.238281 197.53125 365.808594 148.191406 C 365.589844 147.039062 365.21875 145.941406 364.695312 144.890625 C 364.171875 143.839844 363.515625 142.882812 362.722656 142.015625 C 361.933594 141.152344 361.039062 140.410156 360.042969 139.789062 C 359.046875 139.171875 357.984375 138.703125 356.855469 138.378906 C 355.726562 138.058594 354.578125 137.894531 353.40625 137.894531 C 352.230469 137.890625 351.082031 138.046875 349.953125 138.367188 C 348.824219 138.683594 347.757812 139.148438 346.757812 139.761719 C 345.761719 140.378906 344.863281 141.117188 344.070312 141.980469 L 307.875 182.292969 L 281.8125 175.234375 L 272.039062 150.449219 L 306.996094 111.441406 C 307.808594 110.550781 308.476562 109.5625 309 108.476562 C 309.523438 107.390625 309.878906 106.253906 310.070312 105.0625 C 310.261719 103.871094 310.277344 102.679688 310.121094 101.484375 C 309.964844 100.289062 309.640625 99.140625 309.148438 98.039062 C 302.378906 83.359375 276.246094 93.09375 265.441406 98.125 L 265.441406 84.945312 C 265.441406 83.667969 265.40625 82.390625 265.34375 81.113281 C 265.277344 79.839844 265.183594 78.5625 265.058594 77.292969 C 264.929688 76.019531 264.773438 74.753906 264.582031 73.488281 C 264.394531 72.222656 264.175781 70.964844 263.925781 69.710938 C 263.675781 68.460938 263.394531 67.210938 263.082031 65.972656 C 262.769531 64.734375 262.429688 63.503906 262.054688 62.28125 C 261.683594 61.058594 261.28125 59.84375 260.851562 58.640625 C 260.417969 57.4375 259.960938 56.246094 259.46875 55.066406 C 258.980469 53.886719 258.460938 52.71875 257.914062 51.5625 C 257.367188 50.40625 256.792969 49.265625 256.1875 48.140625 C 255.585938 47.011719 254.957031 45.902344 254.296875 44.804688 C 253.640625 43.710938 252.957031 42.628906 252.246094 41.566406 C 251.535156 40.503906 250.800781 39.460938 250.039062 38.433594 C 249.277344 37.40625 248.488281 36.402344 247.679688 35.414062 C 246.867188 34.425781 246.035156 33.457031 245.175781 32.511719 C 244.316406 31.5625 243.4375 30.640625 242.53125 29.734375 C 241.628906 28.832031 240.703125 27.949219 239.753906 27.09375 C 238.808594 26.234375 237.839844 25.398438 236.851562 24.589844 C 235.867188 23.777344 234.859375 22.992188 233.832031 22.230469 C 232.804688 21.46875 231.761719 20.730469 230.699219 20.023438 C 229.636719 19.3125 228.558594 18.628906 227.460938 17.96875 C 226.363281 17.3125 225.253906 16.683594 224.125 16.078125 C 223 15.476562 221.859375 14.902344 220.703125 14.355469 C 219.546875 13.808594 218.378906 13.289062 217.199219 12.800781 C 216.019531 12.308594 214.828125 11.847656 213.625 11.417969 C 212.421875 10.988281 211.207031 10.585938 209.984375 10.214844 C 208.761719 9.839844 207.53125 9.5 206.292969 9.1875 C 205.050781 8.878906 203.804688 8.597656 202.550781 8.34375 C 201.300781 8.09375 200.039062 7.875 198.777344 7.6875 C 197.511719 7.5 196.246094 7.339844 194.972656 7.214844 C 193.699219 7.085938 192.425781 6.992188 191.148438 6.929688 C 189.875 6.863281 188.597656 6.832031 187.320312 6.832031 L 162.625 6.832031 C 162.1875 6.832031 161.757812 6.871094 161.328125 6.957031 C 160.902344 7.042969 160.488281 7.167969 160.082031 7.335938 C 159.679688 7.5 159.296875 7.707031 158.9375 7.949219 C 158.574219 8.191406 158.238281 8.464844 157.929688 8.773438 C 157.621094 9.082031 157.347656 9.417969 157.105469 9.78125 C 156.863281 10.140625 156.660156 10.523438 156.492188 10.925781 C 156.324219 11.328125 156.199219 11.746094 156.113281 12.171875 C 156.027344 12.601562 155.988281 13.03125 155.988281 13.46875 L 155.988281 18.554688 L 109.492188 18.554688 L 109.492188 13.488281 C 109.492188 13.050781 109.449219 12.621094 109.363281 12.191406 C 109.277344 11.765625 109.152344 11.347656 108.984375 10.945312 C 108.820312 10.542969 108.613281 10.160156 108.371094 9.800781 C 108.128906 9.4375 107.855469 9.101562 107.546875 8.792969 C 107.238281 8.484375 106.902344 8.210938 106.542969 7.96875 C 106.179688 7.726562 105.796875 7.519531 105.394531 7.355469 C 104.992188 7.1875 104.574219 7.0625 104.148438 6.976562 C 103.722656 6.890625 103.289062 6.847656 102.851562 6.847656 L 78.121094 6.847656 C 76.839844 6.851562 75.5625 6.882812 74.289062 6.949219 C 73.011719 7.011719 71.738281 7.105469 70.464844 7.234375 C 69.195312 7.359375 67.925781 7.515625 66.660156 7.707031 C 65.398438 7.894531 64.136719 8.113281 62.886719 8.363281 C 61.632812 8.613281 60.386719 8.894531 59.144531 9.207031 C 57.90625 9.519531 56.675781 9.859375 55.453125 10.230469 C 54.230469 10.605469 53.015625 11.003906 51.8125 11.4375 C 50.609375 11.867188 49.417969 12.328125 48.238281 12.816406 C 47.058594 13.308594 45.890625 13.828125 44.734375 14.375 C 43.578125 14.921875 42.4375 15.496094 41.3125 16.097656 C 40.183594 16.699219 39.074219 17.332031 37.976562 17.988281 C 36.882812 18.644531 35.800781 19.328125 34.738281 20.039062 C 33.675781 20.75 32.632812 21.488281 31.605469 22.246094 C 30.578125 23.007812 29.574219 23.796875 28.585938 24.605469 C 27.597656 25.417969 26.628906 26.253906 25.683594 27.109375 C 24.734375 27.96875 23.808594 28.851562 22.90625 29.753906 C 22.003906 30.65625 21.121094 31.582031 20.261719 32.53125 C 19.40625 33.476562 18.570312 34.445312 17.757812 35.433594 C 16.949219 36.417969 16.160156 37.425781 15.398438 38.453125 C 14.636719 39.480469 13.902344 40.523438 13.191406 41.585938 C 12.480469 42.648438 11.796875 43.726562 11.140625 44.824219 C 10.484375 45.921875 9.851562 47.03125 9.25 48.160156 C 8.648438 49.285156 8.070312 50.425781 7.523438 51.582031 C 6.976562 52.738281 6.460938 53.90625 5.96875 55.085938 C 5.480469 56.265625 5.019531 57.457031 4.589844 58.660156 C 4.15625 59.863281 3.753906 61.078125 3.382812 62.300781 C 3.011719 63.523438 2.667969 64.753906 2.359375 65.992188 C 2.046875 67.230469 1.765625 68.480469 1.515625 69.730469 C 1.265625 70.984375 1.046875 72.242188 0.855469 73.507812 C 0.667969 74.773438 0.511719 76.039062 0.382812 77.3125 C 0.257812 78.582031 0.164062 79.859375 0.0976562 81.132812 C 0.0351562 82.410156 0 83.6875 0 84.964844 L 0 137.304688 C 0 137.742188 0.0429688 138.171875 0.128906 138.601562 C 0.210938 139.027344 0.339844 139.441406 0.503906 139.84375 C 0.671875 140.246094 0.875 140.628906 1.117188 140.992188 C 1.359375 141.355469 1.636719 141.691406 1.945312 142 C 2.25 142.308594 2.585938 142.582031 2.949219 142.824219 C 3.3125 143.066406 3.695312 143.269531 4.097656 143.4375 C 4.5 143.605469 4.914062 143.730469 5.34375 143.816406 C 5.769531 143.898438 6.203125 143.941406 6.636719 143.941406 L 79.921875 143.941406 C 80.355469 143.941406 80.789062 143.898438 81.214844 143.816406 C 81.644531 143.730469 82.058594 143.605469 82.460938 143.4375 C 82.863281 143.269531 83.246094 143.066406 83.609375 142.824219 C 83.972656 142.582031 84.308594 142.308594 84.613281 142 C 84.921875 141.691406 85.199219 141.355469 85.441406 140.992188 C 85.683594 140.628906 85.886719 140.246094 86.054688 139.84375 C 86.21875 139.441406 86.347656 139.027344 86.429688 138.601562 C 86.515625 138.171875 86.558594 137.742188 86.558594 137.304688 L 86.558594 110.339844 C 86.550781 108.21875 86.960938 106.179688 87.785156 104.226562 C 88.609375 102.269531 89.78125 100.554688 91.304688 99.078125 C 92.046875 98.328125 92.855469 97.667969 93.738281 97.089844 C 94.617188 96.511719 95.546875 96.03125 96.523438 95.644531 C 97.503906 95.261719 98.511719 94.984375 99.550781 94.808594 C 100.589844 94.636719 101.632812 94.574219 102.683594 94.617188 C 103.578125 94.636719 104.441406 94.480469 105.273438 94.152344 C 106.105469 93.828125 106.84375 93.351562 107.488281 92.730469 C 108.378906 91.652344 109 90.433594 109.347656 89.082031 C 109.699219 87.726562 109.746094 86.359375 109.492188 84.984375 L 155.988281 84.984375 L 155.988281 88.007812 C 156.019531 88.457031 156.09375 88.898438 156.210938 89.335938 C 156.328125 89.773438 156.484375 90.195312 156.679688 90.601562 C 156.878906 91.007812 157.109375 91.390625 157.378906 91.753906 C 157.648438 92.117188 157.949219 92.449219 158.285156 92.753906 C 158.617188 93.0625 158.972656 93.332031 159.359375 93.570312 C 159.742188 93.808594 160.144531 94.007812 160.566406 94.167969 C 160.988281 94.332031 161.421875 94.453125 161.867188 94.53125 C 162.308594 94.609375 162.757812 94.648438 163.210938 94.644531 C 164.242188 94.644531 165.261719 94.746094 166.273438 94.945312 C 167.285156 95.148438 168.269531 95.449219 169.222656 95.84375 C 170.175781 96.238281 171.078125 96.722656 171.9375 97.292969 C 172.796875 97.867188 173.589844 98.519531 174.316406 99.25 C 175.046875 99.976562 175.699219 100.769531 176.273438 101.628906 C 176.847656 102.484375 177.332031 103.390625 177.726562 104.34375 C 178.121094 105.296875 178.421875 106.277344 178.621094 107.289062 C 178.824219 108.300781 178.925781 109.324219 178.929688 110.355469 C 178.898438 128.132812 178.949219 196.265625 178.988281 215.292969 C 179.003906 215.320312 178.988281 226.804688 178.992188 226.835938 L 121.835938 278.019531 C 120.871094 278.859375 119.800781 279.523438 118.621094 280.015625 C 117.445312 280.507812 116.21875 280.800781 114.945312 280.898438 C 114.125 280.972656 113.304688 281.066406 112.488281 281.1875 C 111.671875 281.308594 110.859375 281.453125 110.054688 281.625 C 109.246094 281.792969 108.445312 281.984375 107.648438 282.203125 C 106.851562 282.417969 106.0625 282.660156 105.28125 282.921875 C 104.5 283.183594 103.726562 283.472656 102.960938 283.78125 C 102.195312 284.089844 101.441406 284.421875 100.695312 284.773438 C 99.953125 285.128906 99.21875 285.503906 98.496094 285.902344 C 97.773438 286.296875 97.0625 286.714844 96.363281 287.15625 C 95.664062 287.59375 94.980469 288.054688 94.308594 288.535156 C 93.636719 289.015625 92.980469 289.515625 92.339844 290.03125 C 91.699219 290.550781 91.074219 291.089844 90.464844 291.644531 C 89.855469 292.199219 89.261719 292.773438 88.6875 293.363281 C 88.113281 293.957031 87.554688 294.5625 87.015625 295.1875 C 86.472656 295.808594 85.953125 296.449219 85.453125 297.105469 C 84.949219 297.757812 84.46875 298.429688 84.007812 299.113281 C 83.542969 299.792969 83.101562 300.492188 82.683594 301.199219 C 82.261719 301.910156 81.863281 302.632812 81.484375 303.363281 C 81.105469 304.097656 80.75 304.839844 80.414062 305.59375 C 80.082031 306.347656 79.769531 307.113281 79.480469 307.886719 C 79.191406 308.660156 78.925781 309.4375 78.683594 310.226562 C 78.441406 311.015625 78.222656 311.808594 78.027344 312.613281 C 77.832031 313.414062 77.660156 314.21875 77.511719 315.03125 C 77.363281 315.84375 77.238281 316.65625 77.140625 317.476562 C 77.039062 318.296875 76.964844 319.117188 76.914062 319.941406 C 76.863281 320.761719 76.835938 321.585938 76.835938 322.414062 C 76.832031 323.238281 76.855469 324.0625 76.902344 324.886719 C 76.949219 325.707031 77.019531 326.53125 77.113281 327.347656 C 77.210938 328.167969 77.328125 328.984375 77.472656 329.796875 C 77.617188 330.609375 77.785156 331.417969 77.976562 332.21875 C 78.167969 333.019531 78.382812 333.816406 78.621094 334.605469 C 78.859375 335.398438 79.121094 336.179688 79.40625 336.953125 C 79.691406 337.726562 80 338.492188 80.328125 339.246094 C 80.660156 340.003906 81.011719 340.75 81.386719 341.484375 C 81.761719 342.21875 82.15625 342.941406 82.574219 343.652344 C 82.992188 344.363281 83.429688 345.0625 83.886719 345.75 C 84.347656 346.433594 84.824219 347.105469 85.324219 347.765625 C 85.824219 348.421875 86.339844 349.0625 86.875 349.691406 C 87.414062 350.316406 87.96875 350.925781 88.539062 351.519531 C 89.113281 352.113281 89.703125 352.691406 90.308594 353.25 C 90.914062 353.808594 91.539062 354.347656 92.175781 354.871094 C 92.816406 355.390625 93.46875 355.894531 94.136719 356.378906 C 94.804688 356.863281 95.488281 357.324219 96.183594 357.765625 C 96.878906 358.210938 97.589844 358.632812 98.308594 359.03125 C 99.03125 359.433594 99.761719 359.8125 100.507812 360.171875 C 101.25 360.527344 102.003906 360.863281 102.765625 361.175781 C 103.53125 361.488281 104.300781 361.78125 105.082031 362.046875 C 105.863281 362.3125 106.648438 362.558594 107.445312 362.777344 C 108.238281 363 109.039062 363.195312 109.847656 363.367188 C 110.652344 363.542969 111.464844 363.691406 112.28125 363.816406 C 113.09375 363.941406 113.914062 364.042969 114.734375 364.117188 C 115.554688 364.195312 116.378906 364.246094 117.203125 364.273438 C 118.027344 364.304688 118.851562 364.304688 119.675781 364.285156 C 120.5 364.265625 121.324219 364.21875 122.148438 364.148438 C 122.96875 364.078125 123.789062 363.984375 124.605469 363.867188 C 125.421875 363.75 126.234375 363.605469 127.039062 363.441406 C 127.847656 363.273438 128.652344 363.085938 129.449219 362.871094 C 130.246094 362.65625 131.035156 362.417969 131.816406 362.160156 C 132.597656 361.898438 133.375 361.613281 134.140625 361.308594 C 134.90625 361 135.660156 360.671875 136.40625 360.320312 C 137.152344 359.96875 137.890625 359.597656 138.613281 359.203125 C 139.339844 358.808594 140.050781 358.390625 140.75 357.953125 C 141.449219 357.515625 142.136719 357.058594 142.808594 356.582031 C 143.480469 356.105469 144.136719 355.609375 144.78125 355.089844 C 145.425781 354.574219 146.050781 354.039062 146.664062 353.484375 C 148.382812 351.960938 149.960938 350.304688 151.402344 348.515625 C 152.84375 346.726562 154.125 344.832031 155.25 342.828125 C 156.371094 340.824219 157.320312 338.738281 158.09375 336.574219 C 158.867188 334.414062 159.453125 332.199219 159.855469 329.9375 C 160.066406 328.597656 160.480469 327.328125 161.105469 326.125 C 161.726562 324.917969 162.523438 323.84375 163.496094 322.898438 L 186.957031 301.882812 C 187.753906 303.515625 188.605469 305.121094 189.515625 306.695312 C 190.421875 308.269531 191.386719 309.808594 192.402344 311.316406 C 193.417969 312.824219 194.484375 314.292969 195.601562 315.722656 C 196.722656 317.15625 197.890625 318.546875 199.105469 319.898438 C 200.320312 321.25 201.582031 322.554688 202.890625 323.816406 C 204.195312 325.082031 205.546875 326.296875 206.9375 327.464844 C 208.332031 328.632812 209.761719 329.75 211.230469 330.820312 C 212.703125 331.886719 214.207031 332.902344 215.75 333.867188 C 217.289062 334.832031 218.863281 335.738281 220.464844 336.59375 C 222.070312 337.445312 223.703125 338.242188 225.363281 338.980469 C 227.023438 339.722656 228.707031 340.402344 230.414062 341.023438 C 232.121094 341.644531 233.851562 342.207031 235.597656 342.710938 C 237.34375 343.210938 239.105469 343.652344 240.882812 344.027344 C 242.660156 344.40625 244.449219 344.722656 246.25 344.976562 C 248.046875 345.230469 249.855469 345.421875 251.667969 345.546875 C 253.480469 345.675781 255.296875 345.738281 257.113281 345.742188 L 281.871094 345.742188 C 282.335938 345.738281 282.796875 345.6875 283.25 345.589844 C 283.703125 345.492188 284.140625 345.347656 284.566406 345.15625 C 284.988281 344.96875 285.386719 344.738281 285.765625 344.464844 C 286.140625 344.195312 286.484375 343.886719 286.796875 343.542969 C 287.109375 343.199219 287.382812 342.828125 287.617188 342.425781 C 287.851562 342.027344 288.042969 341.605469 288.1875 341.164062 C 288.335938 340.726562 288.4375 340.273438 288.492188 339.8125 C 288.546875 339.351562 288.550781 338.890625 288.507812 338.429688 L 365.042969 338.429688 C 365.480469 338.429688 365.910156 338.386719 366.339844 338.300781 C 366.765625 338.21875 367.183594 338.09375 367.585938 337.925781 C 367.988281 337.757812 368.371094 337.554688 368.734375 337.3125 C 369.09375 337.070312 369.429688 336.792969 369.738281 336.488281 C 370.046875 336.179688 370.320312 335.84375 370.5625 335.480469 C 370.804688 335.117188 371.011719 334.734375 371.175781 334.332031 C 371.34375 333.929688 371.46875 333.515625 371.554688 333.085938 C 371.640625 332.660156 371.683594 332.226562 371.679688 331.792969 L 371.679688 276.148438 C 371.683594 275.710938 371.640625 275.28125 371.554688 274.851562 C 371.46875 274.425781 371.34375 274.011719 371.175781 273.605469 C 371.011719 273.203125 370.804688 272.820312 370.5625 272.460938 C 370.320312 272.097656 370.046875 271.761719 369.738281 271.453125 C 369.429688 271.144531 369.09375 270.871094 368.734375 270.628906 C 368.371094 270.386719 367.988281 270.179688 367.585938 270.015625 C 367.183594 269.847656 366.765625 269.722656 366.339844 269.636719 C 365.910156 269.550781 365.480469 269.511719 365.042969 269.511719 Z M 96.214844 81.964844 C 94.609375 82.316406 93.039062 82.800781 91.515625 83.417969 C 89.988281 84.035156 88.523438 84.773438 87.121094 85.640625 C 85.722656 86.503906 84.402344 87.480469 83.167969 88.570312 C 81.933594 89.65625 80.796875 90.84375 79.761719 92.121094 C 78.726562 93.402344 77.808594 94.761719 77.003906 96.199219 C 76.199219 97.632812 75.519531 99.128906 74.96875 100.679688 C 74.417969 102.230469 74 103.816406 73.71875 105.4375 C 73.433594 107.0625 73.289062 108.695312 73.285156 110.339844 L 73.285156 130.667969 L 13.273438 130.667969 L 13.273438 84.964844 C 13.277344 83.90625 13.304688 82.84375 13.355469 81.785156 C 13.410156 80.726562 13.488281 79.667969 13.59375 78.613281 C 13.699219 77.558594 13.828125 76.503906 13.984375 75.457031 C 14.144531 74.40625 14.324219 73.359375 14.53125 72.320312 C 14.742188 71.28125 14.972656 70.246094 15.234375 69.21875 C 15.492188 68.1875 15.773438 67.167969 16.082031 66.152344 C 16.390625 65.136719 16.726562 64.128906 17.082031 63.132812 C 17.441406 62.132812 17.824219 61.144531 18.230469 60.164062 C 18.636719 59.183594 19.066406 58.214844 19.523438 57.253906 C 19.976562 56.296875 20.453125 55.347656 20.953125 54.414062 C 21.453125 53.476562 21.976562 52.554688 22.523438 51.644531 C 23.070312 50.738281 23.636719 49.839844 24.226562 48.957031 C 24.816406 48.078125 25.425781 47.210938 26.058594 46.359375 C 26.691406 45.507812 27.34375 44.671875 28.015625 43.851562 C 28.691406 43.03125 29.382812 42.226562 30.09375 41.441406 C 30.808594 40.65625 31.539062 39.886719 32.289062 39.136719 C 33.039062 38.386719 33.808594 37.65625 34.59375 36.941406 C 35.378906 36.230469 36.183594 35.539062 37.003906 34.863281 C 37.824219 34.191406 38.660156 33.539062 39.511719 32.90625 C 40.363281 32.273438 41.230469 31.664062 42.113281 31.074219 C 42.992188 30.484375 43.890625 29.917969 44.800781 29.371094 C 45.707031 28.824219 46.632812 28.300781 47.566406 27.800781 C 48.503906 27.300781 49.449219 26.824219 50.410156 26.371094 C 51.367188 25.914062 52.335938 25.484375 53.316406 25.078125 C 54.296875 24.671875 55.285156 24.289062 56.285156 23.933594 C 57.28125 23.574219 58.289062 23.242188 59.304688 22.933594 C 60.320312 22.625 61.339844 22.339844 62.371094 22.082031 C 63.398438 21.824219 64.433594 21.589844 65.472656 21.382812 C 66.515625 21.175781 67.558594 20.992188 68.609375 20.835938 C 69.65625 20.679688 70.710938 20.546875 71.765625 20.441406 C 72.820312 20.335938 73.878906 20.257812 74.9375 20.207031 C 76 20.152344 77.058594 20.125 78.121094 20.125 L 96.214844 20.125 C 96.195312 25.1875 96.230469 76.527344 96.214844 81.964844 Z M 155.964844 71.710938 L 109.492188 71.710938 L 109.492188 31.828125 L 155.964844 31.828125 Z M 169.261719 82.089844 L 169.261719 20.105469 L 187.320312 20.105469 C 188.378906 20.105469 189.441406 20.132812 190.5 20.1875 C 191.558594 20.238281 192.617188 20.316406 193.671875 20.421875 C 194.726562 20.527344 195.78125 20.660156 196.828125 20.816406 C 197.878906 20.972656 198.925781 21.15625 199.964844 21.363281 C 201.003906 21.570312 202.039062 21.804688 203.070312 22.0625 C 204.097656 22.320312 205.121094 22.605469 206.132812 22.914062 C 207.148438 23.222656 208.15625 23.554688 209.15625 23.914062 C 210.152344 24.269531 211.144531 24.652344 212.121094 25.058594 C 213.101562 25.464844 214.070312 25.894531 215.03125 26.351562 C 215.988281 26.804688 216.9375 27.28125 217.871094 27.78125 C 218.808594 28.28125 219.730469 28.804688 220.640625 29.351562 C 221.550781 29.898438 222.445312 30.464844 223.328125 31.054688 C 224.210938 31.644531 225.078125 32.253906 225.929688 32.886719 C 226.78125 33.519531 227.617188 34.171875 228.4375 34.84375 C 229.257812 35.515625 230.058594 36.210938 230.847656 36.921875 C 231.632812 37.636719 232.402344 38.367188 233.152344 39.117188 C 233.902344 39.867188 234.632812 40.636719 235.34375 41.421875 C 236.058594 42.207031 236.75 43.007812 237.421875 43.828125 C 238.097656 44.648438 238.75 45.484375 239.382812 46.335938 C 240.015625 47.191406 240.625 48.054688 241.214844 48.9375 C 241.804688 49.820312 242.371094 50.714844 242.917969 51.625 C 243.464844 52.535156 243.988281 53.457031 244.488281 54.394531 C 244.988281 55.328125 245.464844 56.277344 245.917969 57.234375 C 246.375 58.195312 246.804688 59.164062 247.210938 60.144531 C 247.617188 61.121094 248 62.113281 248.359375 63.109375 C 248.714844 64.109375 249.050781 65.117188 249.359375 66.132812 C 249.667969 67.144531 249.949219 68.167969 250.207031 69.195312 C 250.46875 70.226562 250.699219 71.261719 250.910156 72.300781 C 251.117188 73.339844 251.296875 74.386719 251.457031 75.4375 C 251.613281 76.484375 251.742188 77.539062 251.847656 78.59375 C 251.953125 79.648438 252.03125 80.707031 252.085938 81.765625 C 252.140625 82.824219 252.167969 83.886719 252.167969 84.945312 L 252.167969 106.976562 C 251.632812 107.425781 251.066406 107.832031 250.539062 108.300781 C 248.257812 110.34375 246.117188 112.53125 244.121094 114.859375 C 242.128906 117.1875 240.296875 119.636719 238.625 122.207031 C 236.957031 124.78125 235.464844 127.449219 234.152344 130.21875 C 232.835938 132.988281 231.710938 135.835938 230.773438 138.753906 C 229.835938 141.671875 229.09375 144.640625 228.550781 147.65625 C 228.007812 150.675781 227.667969 153.714844 227.527344 156.777344 C 227.386719 159.839844 227.453125 162.898438 227.71875 165.953125 C 227.984375 169.007812 228.453125 172.03125 229.117188 175.023438 C 229.296875 175.953125 229.347656 176.890625 229.273438 177.832031 C 229.203125 178.777344 229.007812 179.695312 228.691406 180.585938 C 228.375 181.480469 227.945312 182.316406 227.410156 183.09375 C 226.871094 183.871094 226.238281 184.566406 225.515625 185.179688 L 192.261719 214.957031 C 192.289062 214.8125 192.117188 137.445312 192.203125 137.324219 L 192.203125 110.355469 C 192.199219 108.710938 192.054688 107.078125 191.773438 105.460938 C 191.492188 103.839844 191.074219 102.253906 190.523438 100.707031 C 189.96875 99.160156 189.292969 97.667969 188.484375 96.234375 C 187.679688 94.800781 186.761719 93.445312 185.722656 92.167969 C 184.6875 90.894531 183.550781 89.714844 182.316406 88.628906 C 181.078125 87.546875 179.757812 86.578125 178.355469 85.71875 C 176.953125 84.859375 175.488281 84.125 173.964844 83.515625 C 172.4375 82.90625 170.867188 82.429688 169.261719 82.089844 Z M 154.617188 313.027344 C 152.542969 314.953125 150.835938 317.160156 149.5 319.652344 C 148.160156 322.140625 147.257812 324.78125 146.796875 327.574219 C 146.644531 328.445312 146.449219 329.308594 146.21875 330.164062 C 145.984375 331.019531 145.710938 331.859375 145.402344 332.6875 C 145.089844 333.519531 144.742188 334.332031 144.355469 335.128906 C 143.96875 335.925781 143.546875 336.703125 143.085938 337.460938 C 142.628906 338.21875 142.136719 338.953125 141.609375 339.664062 C 141.082031 340.375 140.523438 341.0625 139.933594 341.722656 C 139.34375 342.382812 138.722656 343.015625 138.074219 343.617188 C 137.425781 344.21875 136.75 344.789062 136.046875 345.328125 C 135.34375 345.871094 134.617188 346.375 133.871094 346.847656 C 133.121094 347.320312 132.351562 347.757812 131.5625 348.160156 C 130.773438 348.558594 129.964844 348.921875 129.140625 349.25 C 128.320312 349.574219 127.480469 349.863281 126.632812 350.113281 C 125.78125 350.359375 124.921875 350.570312 124.050781 350.738281 C 123.183594 350.90625 122.308594 351.035156 121.425781 351.121094 C 120.542969 351.207031 119.660156 351.253906 118.777344 351.261719 C 117.890625 351.265625 117.007812 351.230469 116.125 351.152344 C 115.242188 351.078125 114.363281 350.960938 113.492188 350.800781 C 112.621094 350.644531 111.757812 350.445312 110.90625 350.207031 C 110.054688 349.96875 109.210938 349.691406 108.386719 349.375 C 107.558594 349.058594 106.746094 348.707031 105.953125 348.316406 C 105.15625 347.925781 104.382812 347.496094 103.628906 347.035156 C 102.875 346.570312 102.140625 346.074219 101.433594 345.542969 C 100.722656 345.011719 100.042969 344.449219 99.386719 343.851562 C 98.730469 343.257812 98.101562 342.632812 97.503906 341.980469 C 96.90625 341.328125 96.335938 340.648438 95.800781 339.945312 C 95.265625 339.238281 94.765625 338.511719 94.296875 337.757812 C 93.828125 337.007812 93.398438 336.234375 93 335.441406 C 92.605469 334.648438 92.246094 333.839844 91.925781 333.015625 C 91.605469 332.191406 91.320312 331.351562 91.078125 330.5 C 90.835938 329.648438 90.632812 328.789062 90.46875 327.917969 C 90.304688 327.046875 90.183594 326.171875 90.101562 325.289062 C 90.019531 324.40625 89.976562 323.523438 89.976562 322.636719 C 89.976562 321.75 90.019531 320.867188 90.101562 319.984375 C 90.183594 319.105469 90.304688 318.226562 90.46875 317.355469 C 90.632812 316.488281 90.835938 315.625 91.078125 314.773438 C 91.320312 313.921875 91.605469 313.085938 91.925781 312.257812 C 92.246094 311.433594 92.605469 310.625 93 309.832031 C 93.398438 309.039062 93.828125 308.269531 94.296875 307.515625 C 94.765625 306.765625 95.265625 306.035156 95.800781 305.332031 C 96.339844 304.625 96.90625 303.945312 97.503906 303.292969 C 98.101562 302.640625 98.730469 302.015625 99.386719 301.421875 C 100.042969 300.828125 100.726562 300.265625 101.433594 299.734375 C 102.144531 299.203125 102.875 298.703125 103.628906 298.242188 C 104.382812 297.777344 105.160156 297.351562 105.953125 296.960938 C 106.746094 296.570312 107.558594 296.214844 108.386719 295.898438 C 109.214844 295.582031 110.054688 295.304688 110.90625 295.066406 C 111.761719 294.828125 112.621094 294.632812 113.492188 294.472656 C 114.363281 294.316406 115.242188 294.199219 116.125 294.121094 C 118.820312 293.898438 121.414062 293.257812 123.902344 292.199219 C 126.390625 291.140625 128.648438 289.714844 130.675781 287.925781 L 234.347656 195.089844 C 235.148438 194.394531 235.894531 193.648438 236.597656 192.855469 C 237.296875 192.058594 237.941406 191.222656 238.527344 190.339844 C 239.117188 189.460938 239.644531 188.546875 240.113281 187.597656 C 240.578125 186.648438 240.980469 185.671875 241.320312 184.667969 C 241.65625 183.664062 241.929688 182.640625 242.132812 181.601562 C 242.332031 180.5625 242.46875 179.515625 242.53125 178.457031 C 242.59375 177.402344 242.589844 176.34375 242.511719 175.289062 C 242.4375 174.234375 242.289062 173.1875 242.074219 172.152344 C 241.859375 171.136719 241.671875 170.121094 241.511719 169.097656 C 241.351562 168.074219 241.21875 167.046875 241.117188 166.019531 C 241.011719 164.988281 240.9375 163.957031 240.890625 162.921875 C 240.84375 161.886719 240.824219 160.851562 240.832031 159.816406 C 240.84375 158.78125 240.882812 157.75 240.949219 156.714844 C 241.015625 155.683594 241.109375 154.652344 241.234375 153.625 C 241.355469 152.597656 241.507812 151.574219 241.6875 150.554688 C 241.867188 149.535156 242.074219 148.519531 242.308594 147.511719 C 242.542969 146.503906 242.804688 145.503906 243.097656 144.507812 C 243.386719 143.515625 243.703125 142.53125 244.046875 141.554688 C 244.390625 140.578125 244.761719 139.609375 245.160156 138.65625 C 245.554688 137.699219 245.980469 136.753906 246.429688 135.820312 C 246.875 134.886719 247.351562 133.96875 247.851562 133.0625 C 248.351562 132.15625 248.875 131.261719 249.421875 130.382812 C 249.972656 129.507812 250.542969 128.644531 251.136719 127.796875 C 251.734375 126.949219 252.351562 126.121094 252.996094 125.308594 C 253.636719 124.496094 254.296875 123.703125 254.984375 122.925781 C 255.667969 122.148438 256.375 121.390625 257.101562 120.65625 C 257.828125 119.917969 258.574219 119.199219 259.339844 118.503906 C 260.105469 117.808594 260.890625 117.132812 261.691406 116.480469 C 262.496094 115.824219 263.316406 115.195312 264.152344 114.585938 C 264.992188 113.976562 265.84375 113.394531 266.714844 112.832031 C 267.585938 112.269531 268.46875 111.730469 269.367188 111.21875 C 270.265625 110.707031 271.179688 110.21875 272.105469 109.753906 C 273.03125 109.292969 273.96875 108.855469 274.917969 108.445312 C 275.871094 108.03125 276.828125 107.648438 277.800781 107.289062 C 278.773438 106.929688 279.753906 106.597656 280.742188 106.292969 C 281.730469 105.988281 282.726562 105.710938 283.734375 105.460938 C 284.738281 105.210938 285.746094 104.988281 286.765625 104.792969 C 287.78125 104.601562 288.804688 104.433594 289.828125 104.292969 C 290.855469 104.15625 291.882812 104.046875 292.914062 103.964844 C 293.949219 103.882812 294.980469 103.828125 296.015625 103.800781 L 259.414062 144.648438 C 259.003906 145.109375 258.664062 145.613281 258.394531 146.167969 C 258.125 146.71875 257.933594 147.300781 257.824219 147.90625 C 257.714844 148.511719 257.691406 149.121094 257.753906 149.734375 C 257.8125 150.347656 257.957031 150.941406 258.183594 151.511719 L 270.683594 183.207031 C 271.070312 184.183594 271.652344 185.019531 272.433594 185.71875 C 273.214844 186.417969 274.113281 186.902344 275.125 187.175781 L 308.347656 196.171875 C 308.941406 196.332031 309.546875 196.414062 310.160156 196.40625 C 310.777344 196.402344 311.378906 196.308594 311.96875 196.136719 C 312.558594 195.960938 313.113281 195.710938 313.632812 195.382812 C 314.152344 195.054688 314.617188 194.660156 315.027344 194.199219 L 352.96875 151.941406 C 353.132812 153.097656 353.257812 154.257812 353.347656 155.417969 C 353.4375 156.582031 353.492188 157.75 353.511719 158.914062 C 353.53125 160.082031 353.511719 161.25 353.457031 162.414062 C 353.402344 163.582031 353.3125 164.742188 353.1875 165.902344 C 353.058594 167.0625 352.898438 168.21875 352.699219 169.367188 C 352.5 170.519531 352.265625 171.660156 351.996094 172.796875 C 351.726562 173.933594 351.421875 175.058594 351.082031 176.175781 C 350.742188 177.292969 350.371094 178.398438 349.960938 179.492188 C 349.554688 180.582031 349.113281 181.664062 348.636719 182.730469 C 348.160156 183.796875 347.652344 184.84375 347.113281 185.878906 C 346.570312 186.914062 346 187.929688 345.394531 188.929688 C 344.792969 189.929688 344.15625 190.90625 343.492188 191.867188 C 342.828125 192.824219 342.136719 193.761719 341.414062 194.679688 C 340.6875 195.597656 339.9375 196.488281 339.160156 197.359375 C 338.382812 198.226562 337.578125 199.074219 336.746094 199.890625 C 335.914062 200.710938 335.058594 201.503906 334.179688 202.269531 C 333.300781 203.039062 332.394531 203.777344 331.46875 204.484375 C 330.542969 205.195312 329.597656 205.878906 328.628906 206.527344 C 327.660156 207.179688 326.671875 207.800781 325.664062 208.390625 C 324.660156 208.980469 323.632812 209.539062 322.59375 210.066406 C 321.550781 210.589844 320.492188 211.085938 319.421875 211.546875 C 318.347656 212.003906 317.261719 212.433594 316.164062 212.824219 C 315.066406 213.21875 313.957031 213.578125 312.835938 213.902344 C 311.714844 214.226562 310.582031 214.515625 309.445312 214.769531 C 308.304688 215.023438 307.160156 215.242188 306.007812 215.421875 C 304.855469 215.605469 303.695312 215.753906 302.535156 215.863281 C 301.371094 215.972656 300.207031 216.046875 299.042969 216.085938 C 297.875 216.125 296.710938 216.128906 295.542969 216.09375 C 294.375 216.058594 293.210938 215.988281 292.050781 215.882812 C 290.886719 215.773438 289.730469 215.632812 288.574219 215.453125 C 287.421875 215.277344 286.277344 215.0625 285.136719 214.8125 C 283.996094 214.5625 282.863281 214.277344 281.742188 213.957031 C 279.769531 213.433594 277.761719 213.160156 275.722656 213.140625 C 273.679688 213.121094 271.667969 213.351562 269.683594 213.835938 C 267.699219 214.320312 265.808594 215.039062 264.003906 216 C 262.203125 216.957031 260.546875 218.125 259.039062 219.5 Z M 257.113281 332.464844 C 255.523438 332.464844 253.9375 332.40625 252.355469 332.292969 C 250.773438 332.175781 249.195312 332 247.625 331.769531 C 246.054688 331.535156 244.492188 331.246094 242.945312 330.898438 C 241.394531 330.550781 239.859375 330.148438 238.339844 329.6875 C 236.820312 329.230469 235.320312 328.714844 233.835938 328.144531 C 232.355469 327.574219 230.894531 326.949219 229.460938 326.273438 C 228.023438 325.59375 226.613281 324.867188 225.230469 324.085938 C 223.847656 323.304688 222.496094 322.472656 221.175781 321.59375 C 219.855469 320.714844 218.566406 319.785156 217.3125 318.8125 C 216.058594 317.835938 214.84375 316.816406 213.667969 315.753906 C 212.488281 314.6875 211.351562 313.582031 210.253906 312.433594 C 209.15625 311.285156 208.101562 310.101562 207.09375 308.875 C 206.082031 307.648438 205.117188 306.390625 204.203125 305.09375 C 203.285156 303.796875 202.414062 302.46875 201.597656 301.109375 C 200.777344 299.75 200.007812 298.359375 199.289062 296.945312 C 198.570312 295.527344 197.90625 294.085938 197.296875 292.621094 L 252.382812 243.277344 C 252.441406 244.875 252.628906 246.457031 252.949219 248.027344 C 253.269531 249.59375 253.714844 251.125 254.289062 252.621094 C 254.859375 254.113281 255.554688 255.550781 256.367188 256.929688 C 257.175781 258.308594 258.097656 259.613281 259.125 260.839844 C 260.152344 262.066406 261.273438 263.199219 262.488281 264.242188 C 263.707031 265.28125 265 266.214844 266.367188 267.042969 C 267.738281 267.867188 269.167969 268.574219 270.65625 269.164062 C 272.144531 269.753906 273.671875 270.21875 275.234375 270.554688 C 275.324219 271.160156 275.109375 328.886719 275.203125 331.792969 C 275.203125 331.847656 275.234375 331.894531 275.234375 331.953125 L 275.234375 332.464844 Z M 358.40625 325.15625 L 288.507812 325.15625 L 288.507812 282.785156 L 358.40625 282.785156 Z M 358.40625 325.15625 " fill-opacity="1" fill-rule="nonzero"/></g><path fill="#b80000" d="M 103.265625 305.296875 C 81.066406 326.21875 111.019531 359.289062 134.152344 339.589844 C 156.34375 318.6875 126.425781 285.59375 103.265625 305.296875 Z M 125.300781 329.699219 C 124.820312 330.121094 124.308594 330.496094 123.753906 330.816406 C 123.203125 331.140625 122.628906 331.40625 122.023438 331.613281 C 121.421875 331.824219 120.804688 331.972656 120.171875 332.0625 C 119.539062 332.152344 118.90625 332.179688 118.269531 332.144531 C 117.632812 332.109375 117.003906 332.015625 116.386719 331.855469 C 115.765625 331.699219 115.167969 331.484375 114.59375 331.207031 C 114.015625 330.933594 113.472656 330.605469 112.960938 330.226562 C 112.445312 329.847656 111.976562 329.417969 111.546875 328.945312 C 111.117188 328.472656 110.738281 327.964844 110.410156 327.417969 C 110.078125 326.871094 109.804688 326.296875 109.585938 325.699219 C 109.371094 325.097656 109.210938 324.484375 109.117188 323.851562 C 109.019531 323.222656 108.984375 322.585938 109.007812 321.949219 C 109.035156 321.3125 109.125 320.683594 109.273438 320.0625 C 109.421875 319.441406 109.628906 318.839844 109.898438 318.261719 C 110.164062 317.679688 110.484375 317.132812 110.859375 316.613281 C 111.230469 316.097656 111.652344 315.621094 112.121094 315.1875 C 112.597656 314.761719 113.113281 314.390625 113.664062 314.066406 C 114.214844 313.746094 114.789062 313.480469 115.394531 313.269531 C 115.996094 313.058594 116.613281 312.910156 117.246094 312.820312 C 117.878906 312.730469 118.511719 312.703125 119.148438 312.738281 C 119.785156 312.773438 120.414062 312.871094 121.035156 313.027344 C 121.652344 313.1875 122.25 313.402344 122.824219 313.675781 C 123.402344 313.949219 123.945312 314.277344 124.460938 314.65625 C 124.972656 315.039062 125.441406 315.464844 125.871094 315.9375 C 126.300781 316.410156 126.679688 316.917969 127.011719 317.464844 C 127.339844 318.011719 127.613281 318.585938 127.832031 319.1875 C 128.046875 319.785156 128.207031 320.402344 128.304688 321.03125 C 128.402344 321.664062 128.4375 322.296875 128.410156 322.9375 C 128.382812 323.574219 128.292969 324.203125 128.144531 324.824219 C 127.996094 325.445312 127.789062 326.042969 127.519531 326.625 C 127.253906 327.203125 126.933594 327.753906 126.558594 328.269531 C 126.1875 328.789062 125.765625 329.261719 125.300781 329.699219 Z M 125.300781 329.699219 " fill-opacity="1" fill-rule="nonzero"/><path fill="#b80000" d="M 47.542969 163.621094 C 46.886719 163.621094 46.246094 163.714844 45.617188 163.90625 C 44.988281 164.097656 44.402344 164.375 43.855469 164.738281 C 43.308594 165.101562 42.828125 165.539062 42.414062 166.046875 C 41.996094 166.554688 41.664062 167.109375 41.410156 167.71875 C 37.605469 176.914062 18.625 223.433594 18.625 236.402344 C 18.625 237.347656 18.675781 238.292969 18.769531 239.234375 C 18.863281 240.175781 19.003906 241.109375 19.1875 242.039062 C 19.375 242.964844 19.605469 243.882812 19.882812 244.785156 C 20.15625 245.691406 20.476562 246.582031 20.839844 247.453125 C 21.203125 248.328125 21.605469 249.183594 22.054688 250.015625 C 22.5 250.851562 22.988281 251.660156 23.515625 252.445312 C 24.039062 253.234375 24.605469 253.992188 25.207031 254.722656 C 25.804688 255.453125 26.441406 256.152344 27.109375 256.820312 C 27.78125 257.488281 28.480469 258.125 29.210938 258.722656 C 29.945312 259.324219 30.703125 259.886719 31.492188 260.410156 C 32.277344 260.9375 33.089844 261.421875 33.921875 261.867188 C 34.757812 262.3125 35.613281 262.714844 36.488281 263.078125 C 37.359375 263.441406 38.25 263.757812 39.15625 264.03125 C 40.0625 264.304688 40.980469 264.535156 41.90625 264.71875 C 42.835938 264.90625 43.769531 265.042969 44.710938 265.136719 C 45.652344 265.226562 46.597656 265.273438 47.542969 265.273438 C 48.488281 265.273438 49.433594 265.226562 50.375 265.136719 C 51.316406 265.042969 52.25 264.90625 53.179688 264.71875 C 54.105469 264.535156 55.023438 264.304688 55.929688 264.03125 C 56.835938 263.757812 57.722656 263.441406 58.597656 263.078125 C 59.472656 262.714844 60.328125 262.3125 61.160156 261.867188 C 61.996094 261.421875 62.808594 260.9375 63.59375 260.410156 C 64.382812 259.886719 65.140625 259.324219 65.871094 258.722656 C 66.605469 258.125 67.304688 257.488281 67.972656 256.820312 C 68.644531 256.152344 69.277344 255.453125 69.878906 254.722656 C 70.480469 253.992188 71.042969 253.234375 71.570312 252.445312 C 72.097656 251.660156 72.585938 250.851562 73.03125 250.015625 C 73.476562 249.183594 73.882812 248.328125 74.246094 247.453125 C 74.609375 246.582031 74.929688 245.691406 75.203125 244.785156 C 75.480469 243.882812 75.710938 242.964844 75.898438 242.039062 C 76.082031 241.109375 76.222656 240.175781 76.316406 239.234375 C 76.410156 238.292969 76.457031 237.347656 76.460938 236.402344 C 76.460938 223.433594 57.480469 176.914062 53.675781 167.71875 C 53.421875 167.109375 53.089844 166.554688 52.671875 166.046875 C 52.257812 165.539062 51.777344 165.101562 51.230469 164.738281 C 50.683594 164.375 50.097656 164.097656 49.46875 163.90625 C 48.839844 163.714844 48.199219 163.621094 47.542969 163.621094 Z M 47.542969 252.042969 C 46.515625 252.042969 45.5 251.941406 44.492188 251.738281 C 43.484375 251.539062 42.507812 251.242188 41.558594 250.847656 C 40.609375 250.457031 39.710938 249.972656 38.855469 249.402344 C 38.003906 248.832031 37.210938 248.183594 36.484375 247.457031 C 35.761719 246.730469 35.113281 245.941406 34.542969 245.089844 C 33.96875 244.234375 33.488281 243.335938 33.09375 242.386719 C 32.699219 241.4375 32.402344 240.460938 32.203125 239.453125 C 32 238.445312 31.898438 237.429688 31.898438 236.402344 C 31.898438 230.441406 39.777344 208.019531 47.542969 188.089844 C 55.308594 208.019531 63.1875 230.4375 63.1875 236.402344 C 63.183594 237.429688 63.082031 238.445312 62.882812 239.453125 C 62.679688 240.460938 62.382812 241.4375 61.992188 242.386719 C 61.597656 243.335938 61.113281 244.234375 60.542969 245.089844 C 59.972656 245.941406 59.324219 246.730469 58.597656 247.457031 C 57.871094 248.183594 57.082031 248.832031 56.230469 249.402344 C 55.375 249.972656 54.476562 250.457031 53.527344 250.847656 C 52.578125 251.242188 51.601562 251.539062 50.59375 251.738281 C 49.585938 251.941406 48.570312 252.042969 47.542969 252.042969 Z M 47.542969 252.042969 " fill-opacity="1" fill-rule="nonzero"/></svg>