<svg xmlns="http://www.w3.org/2000/svg" xmlns:xlink="http://www.w3.org/1999/xlink" width="500" zoomAndPan="magnify" viewBox="0 0 375 374.999991" height="500" preserveAspectRatio="xMidYMid meet" version="1.0"><defs><clipPath id="6c5edec11d"><path d="M 28.296875 0 L 328 0 L 328 375 L 28.296875 375 Z M 28.296875 0 " clip-rule="nonzero"/></clipPath></defs><path fill="#b80000" d="M 177.53125 272.949219 C 174.207031 272.949219 171.019531 271.628906 168.664062 269.277344 L 85.132812 185.742188 C 80.238281 180.847656 80.238281 172.910156 85.132812 168.015625 L 118.074219 135.074219 C 120.425781 132.722656 123.613281 131.402344 126.9375 131.402344 C 130.265625 131.402344 133.449219 132.722656 135.800781 135.074219 L 177.53125 176.800781 L 291.128906 63.203125 C 293.476562 60.851562 296.667969 59.53125 299.992188 59.53125 C 303.316406 59.53125 306.503906 60.851562 308.855469 63.203125 L 341.800781 96.144531 C 346.695312 101.039062 346.695312 108.976562 341.800781 113.871094 L 186.394531 269.277344 C 184.042969 271.628906 180.855469 272.949219 177.53125 272.949219 Z M 111.722656 176.878906 L 177.53125 242.6875 L 315.210938 105.007812 L 299.992188 89.792969 L 186.394531 203.390625 C 181.5 208.285156 173.5625 208.285156 168.667969 203.390625 L 126.941406 161.664062 Z M 111.722656 176.878906 " fill-opacity="1" fill-rule="nonzero"/><g clip-path="url(#6c5edec11d)"><path fill="#b80000" d="M 178.070312 374.742188 C 176.390625 374.742188 174.714844 374.40625 173.140625 373.734375 L 153.132812 365.179688 C 115.976562 349.292969 84.570312 323.066406 62.3125 289.339844 C 40.054688 255.613281 28.285156 216.425781 28.285156 176.015625 L 28.285156 48.5625 C 28.285156 45.019531 29.785156 41.640625 32.417969 39.261719 C 35.046875 36.886719 38.558594 35.734375 42.085938 36.089844 C 82.5625 40.203125 118.121094 31.257812 150.785156 8.742188 C 158.84375 3.191406 168.277344 0.253906 178.070312 0.253906 C 187.859375 0.253906 197.292969 3.1875 205.351562 8.742188 C 228.867188 24.949219 253.605469 34 280.972656 36.410156 L 278.773438 61.382812 C 262.859375 59.980469 247.3125 56.507812 232.566406 51.058594 C 218.261719 45.769531 204.320312 38.480469 191.125 29.386719 C 183.316406 24.003906 172.820312 24.003906 165.011719 29.386719 C 146.730469 41.984375 127.113281 51.058594 106.699219 56.347656 C 89.734375 60.746094 71.84375 62.628906 53.355469 61.980469 L 53.355469 176.011719 C 53.355469 248.445312 96.390625 313.648438 162.988281 342.125 L 178.070312 348.574219 L 193.148438 342.125 C 259.746094 313.648438 302.78125 248.445312 302.78125 176.011719 L 302.78125 160.296875 L 327.851562 160.296875 L 327.851562 176.011719 C 327.851562 216.421875 316.085938 255.609375 293.824219 289.335938 C 271.566406 323.0625 240.160156 349.289062 203.003906 365.175781 L 182.996094 373.730469 C 181.421875 374.40625 179.746094 374.742188 178.070312 374.742188 Z M 178.070312 374.742188 " fill-opacity="1" fill-rule="nonzero"/></g></svg>