<svg xmlns="http://www.w3.org/2000/svg" xmlns:xlink="http://www.w3.org/1999/xlink" width="500" zoomAndPan="magnify" viewBox="0 0 375 374.999991" height="500" preserveAspectRatio="xMidYMid meet" version="1.0"><defs><clipPath id="d140bdfc97"><path d="M 33.066406 0 L 342 0 L 342 375 L 33.066406 375 Z M 33.066406 0 " clip-rule="nonzero"/></clipPath></defs><g clip-path="url(#d140bdfc97)"><path fill="#b80000" d="M 313.316406 131.167969 L 317.484375 127 C 327.515625 116.964844 327.511719 100.640625 317.480469 90.605469 C 307.449219 80.574219 291.121094 80.570312 281.085938 90.601562 L 276.917969 94.769531 C 253.539062 78.105469 225.335938 67.792969 194.851562 66.355469 L 194.851562 44.117188 L 209.558594 44.117188 C 221.71875 44.117188 231.617188 34.222656 231.617188 22.058594 C 231.617188 9.894531 221.71875 0 209.558594 0 L 165.4375 0 C 153.277344 0 143.378906 9.894531 143.378906 22.058594 C 143.378906 34.222656 153.277344 44.117188 165.4375 44.117188 L 180.144531 44.117188 L 180.144531 66.355469 C 98.402344 70.207031 33.085938 137.910156 33.085938 220.589844 C 33.085938 305.730469 102.355469 375 187.496094 375 C 272.640625 375 341.910156 305.730469 341.910156 220.589844 C 341.910156 187.289062 331.3125 156.417969 313.316406 131.167969 Z M 158.085938 22.058594 C 158.085938 18.003906 161.382812 14.707031 165.4375 14.707031 L 209.558594 14.707031 C 213.609375 14.707031 216.910156 18.003906 216.910156 22.058594 C 216.910156 26.113281 213.609375 29.410156 209.558594 29.410156 L 165.4375 29.410156 C 161.382812 29.410156 158.085938 26.113281 158.085938 22.058594 Z M 291.484375 101.003906 C 295.785156 96.703125 302.78125 96.703125 307.082031 101.003906 C 311.382812 105.304688 311.382812 112.300781 307.082031 116.601562 L 304.15625 119.53125 C 299.332031 113.96875 294.117188 108.753906 288.554688 103.929688 Z M 187.496094 360.292969 C 110.464844 360.292969 47.792969 297.621094 47.792969 220.589844 C 47.792969 143.554688 110.464844 80.882812 187.496094 80.882812 C 264.53125 80.882812 327.203125 143.554688 327.203125 220.589844 C 327.203125 297.621094 264.53125 360.292969 187.496094 360.292969 Z M 187.496094 360.292969 " fill-opacity="1" fill-rule="nonzero"/></g><path fill="#b80000" d="M 187.496094 102.941406 C 122.664062 102.941406 69.851562 155.707031 69.851562 220.589844 C 69.851562 285.429688 122.621094 338.234375 187.496094 338.234375 C 252.339844 338.234375 305.144531 285.460938 305.144531 220.589844 C 305.144531 155.753906 252.382812 102.941406 187.496094 102.941406 Z M 283.085938 227.941406 L 290.171875 227.941406 C 288.550781 250.804688 279.4375 271.628906 265.269531 287.960938 L 260.289062 282.980469 C 257.417969 280.109375 252.761719 280.109375 249.890625 282.980469 C 247.019531 285.851562 247.019531 290.507812 249.890625 293.378906 L 254.871094 298.359375 C 238.535156 312.527344 217.710938 321.644531 194.851562 323.265625 L 194.851562 316.175781 C 194.851562 312.117188 191.558594 308.824219 187.496094 308.824219 C 183.4375 308.824219 180.144531 312.117188 180.144531 316.175781 L 180.144531 323.265625 C 157.28125 321.644531 136.457031 312.527344 120.125 298.359375 L 125.105469 293.378906 C 127.976562 290.507812 127.976562 285.851562 125.105469 282.980469 C 122.234375 280.109375 117.578125 280.109375 114.707031 282.980469 L 109.726562 287.960938 C 95.558594 271.628906 86.441406 250.804688 84.820312 227.941406 L 91.910156 227.941406 C 95.96875 227.941406 99.261719 224.648438 99.261719 220.589844 C 99.261719 216.527344 95.96875 213.234375 91.910156 213.234375 L 84.820312 213.234375 C 86.445312 190.375 95.558594 169.546875 109.726562 153.214844 L 114.707031 158.195312 C 117.578125 161.070312 122.234375 161.070312 125.105469 158.195312 C 127.976562 155.324219 127.976562 150.667969 125.105469 147.796875 L 120.125 142.816406 C 136.457031 128.648438 157.28125 119.535156 180.144531 117.914062 L 180.144531 125 C 180.144531 129.0625 183.4375 132.351562 187.496094 132.351562 C 191.558594 132.351562 194.851562 129.0625 194.851562 125 L 194.851562 117.914062 C 217.710938 119.535156 238.539062 128.648438 254.871094 142.816406 L 249.890625 147.796875 C 247.019531 150.667969 247.019531 155.324219 249.890625 158.195312 C 252.761719 161.066406 257.414062 161.066406 260.289062 158.195312 L 265.269531 153.214844 C 279.4375 169.546875 288.550781 190.371094 290.171875 213.234375 L 283.085938 213.234375 C 279.027344 213.234375 275.734375 216.527344 275.734375 220.585938 C 275.734375 224.648438 279.027344 227.941406 283.085938 227.941406 Z M 283.085938 227.941406 " fill-opacity="1" fill-rule="nonzero"/><path fill="#b80000" d="M 194.851562 199.792969 L 194.851562 154.410156 C 194.851562 150.351562 191.558594 147.058594 187.496094 147.058594 C 183.4375 147.058594 180.144531 150.351562 180.144531 154.410156 L 180.144531 199.792969 C 171.585938 202.828125 165.4375 211.003906 165.4375 220.589844 C 165.4375 232.75 175.335938 242.648438 187.496094 242.648438 C 199.660156 242.648438 209.558594 232.75 209.558594 220.589844 C 209.558594 211.003906 203.410156 202.828125 194.851562 199.792969 Z M 187.496094 227.941406 C 183.445312 227.941406 180.144531 224.644531 180.144531 220.589844 C 180.144531 216.535156 183.445312 213.234375 187.496094 213.234375 C 191.550781 213.234375 194.851562 216.535156 194.851562 220.589844 C 194.851562 224.644531 191.550781 227.941406 187.496094 227.941406 Z M 187.496094 227.941406 " fill-opacity="1" fill-rule="nonzero"/></svg>