<svg xmlns="http://www.w3.org/2000/svg" xmlns:xlink="http://www.w3.org/1999/xlink" width="500" zoomAndPan="magnify" viewBox="0 0 375 374.999991" height="500" preserveAspectRatio="xMidYMid meet" version="1.0"><path fill="#b80000" d="M 187.5 0 C 291.050781 0 374.996094 83.949219 374.996094 187.5 C 374.996094 291.054688 291.050781 375 187.5 375 C 83.945312 375 0 291.054688 0 187.5 C 0 83.949219 83.945312 0 187.5 0 Z M 187.5 0 " fill-opacity="1" fill-rule="evenodd"/><path fill="#ffffff" d="M 144.453125 148.074219 C 151.976562 142.417969 148.277344 145.183594 155.804688 139.53125 C 162.402344 134.585938 160.613281 129.679688 154.96875 121.832031 C 143.414062 105.800781 139.507812 99.957031 128.019531 83.871094 C 121.191406 74.304688 112.265625 81.765625 109.90625 84.171875 C 49.402344 145.972656 88.328125 193.644531 136.921875 242.238281 C 183.167969 288.484375 231.070312 323.789062 290.925781 265.191406 C 293.332031 262.835938 300.792969 253.90625 291.226562 247.078125 C 275.140625 235.59375 269.300781 231.683594 253.261719 220.128906 C 245.421875 214.480469 240.515625 212.695312 235.566406 219.289062 C 229.914062 226.820312 232.683594 223.121094 227.023438 230.644531 C 219.292969 241.046875 205.175781 253.546875 165.953125 213.449219 C 120.558594 167.042969 133.613281 156.132812 144.453125 148.074219 Z M 144.453125 148.074219 " fill-opacity="1" fill-rule="evenodd"/></svg>